<svg width="180" height="60" fill="none" xmlns="http://www.w3.org/2000/svg"><g clip-path="url(#clip0_1_563)"><path d="M67.495 14.161c0-7.626 6.269-12.571 13.253-12.571 4.622 0 8.17 2.268 10.478 5.667l-5.909 3.712c-.926-1.444-2.875-2.32-4.521-2.32-3.495 0-5.55 2.522-5.55 5.512 0 2.99 2.055 5.667 5.55 5.667 1.641 0 3.595-.876 4.521-2.32l5.91 3.712c-2.31 3.399-5.857 5.667-10.48 5.667-6.983 0-13.252-5.1-13.252-12.726zm28.047.101c0-7.626 6.163-12.677 12.999-12.677 6.835 0 13.046 5.05 13.046 12.677s-6.216 12.625-13.046 12.625c-6.831 0-12.999-5.05-12.999-12.625zm18.288 0c0-3.298-2.361-5.618-5.289-5.618-2.928 0-5.29 2.32-5.29 5.618 0 3.299 2.362 5.566 5.29 5.566s5.289-2.267 5.289-5.566zm12.073-.101c0-7.626 6.269-12.571 13.253-12.571 4.623 0 8.17 2.268 10.479 5.667l-5.909 3.712c-.927-1.444-2.876-2.32-4.522-2.32-3.495 0-5.549 2.522-5.549 5.512 0 2.99 2.054 5.667 5.549 5.667 1.642 0 3.595-.876 4.522-2.32l5.909 3.712c-2.309 3.399-5.856 5.667-10.479 5.667-6.984 0-13.253-5.1-13.253-12.726zm28.052.101c0-7.626 6.163-12.677 12.998-12.677 6.836 0 13.047 5.05 13.047 12.677s-6.216 12.625-13.047 12.625c-6.83 0-12.998-5.05-12.998-12.625zm18.288 0c0-3.298-2.362-5.618-5.29-5.618s-5.289 2.32-5.289 5.618c0 3.299 2.361 5.566 5.289 5.566 2.928 0 5.29-2.267 5.29-5.566zm-66.899 30.425v12.725h-7.776v-11.45c0-3.201-1.31-4.554-3.355-4.554-2.252 0-3.889 1.517-3.889 4.964v11.04h-7.776v-11.45c0-3.201-1.267-4.554-3.355-4.554-2.29 0-3.927 1.517-3.927 4.964v11.04H67.49V35.168h7.407v2.34c1.675-1.806 4.008-2.71 6.629-2.71 3.029 0 5.606 1.107 7.162 3.49 1.756-2.215 4.502-3.49 7.69-3.49 5.155 0 8.961 2.994 8.961 9.889h.005zm28.854-9.519v22.244h-7.407v-2.215c-1.474 1.767-3.643 2.586-6.547 2.586-6.015 0-10.887-4.435-10.887-11.532 0-7.096 4.867-11.449 10.887-11.449 2.577 0 4.665.737 6.177 2.297v-1.931h7.777zm-7.652 11.084c0-3.366-2.045-5.253-4.666-5.253-2.62 0-4.665 1.887-4.665 5.252 0 3.366 2.045 5.335 4.665 5.335 2.621 0 4.666-1.93 4.666-5.334zm26.924 10.255c-1.349.862-3.355 1.271-5.4 1.271-5.688 0-8.962-2.792-8.962-8.493V30.117h7.776v5.051h5.035v6.65h-5.035v7.385c0 1.642.903 2.547 2.29 2.547.859 0 1.718-.245 2.371-.698l1.925 5.46v-.005zm20.842-6.606l4.051 4.266c-2.088 2.379-5.198 3.611-9.413 3.611-7.896 0-13.013-4.882-13.013-11.531 0-6.65 5.237-11.45 12.274-11.45 6.384 0 11.741 4.064 11.784 11.33l-15.835 3.038c.859 1.805 2.577 2.667 5.03 2.667 2.17 0 3.6-.616 5.117-1.93h.005zm-10.762-4.718l9-1.767c-.533-1.85-2.126-3.077-4.296-3.077-2.659 0-4.459 1.685-4.704 4.844zM19.964 19.227a6.757 6.757 0 01-9.543.804 6.806 6.806 0 01-.801-9.572 6.757 6.757 0 019.542-.804 6.686 6.686 0 011.488 1.796l6.941-4.02a14.724 14.724 0 00-3.254-3.925C18.102-1.78 8.765-.99 3.495 5.27c-5.276 6.259-4.488 15.623 1.752 20.91 6.24 5.287 15.576 4.502 20.847-1.757a14.79 14.79 0 001.502-2.162l-6.94-4.02a7.044 7.044 0 01-.687.992l-.005-.005z" fill="#5DCD57"/><path d="M27.596 7.43l-6.94 4.02a6.795 6.795 0 010 6.785l6.94 4.02c2.67-4.627 2.607-10.294 0-14.825z" fill="#C9CACA"/><path d="M56.82 7.43a14.728 14.728 0 00-3.255-3.924C47.325-1.78 37.988-.996 32.718 5.264c-5.27 6.259-4.488 15.623 1.752 20.91 6.24 5.287 15.576 4.502 20.847-1.757a14.78 14.78 0 001.502-2.162c2.67-4.627 2.607-10.294 0-14.825zm-7.628 11.797a6.757 6.757 0 01-9.543.803 6.806 6.806 0 01-.801-9.571 6.757 6.757 0 019.542-.804 6.686 6.686 0 011.488 1.796 6.795 6.795 0 010 6.784 7.036 7.036 0 01-.686.992z" fill="#5DCD57"/><path d="M38.834 39.785a6.757 6.757 0 019.542-.804 6.806 6.806 0 01.802 9.572 6.757 6.757 0 01-9.543.804 6.686 6.686 0 01-1.488-1.796l-6.94 4.02a14.726 14.726 0 003.254 3.924c6.24 5.287 15.576 4.502 20.846-1.757 5.271-6.26 4.489-15.624-1.752-20.91-6.24-5.287-15.576-4.502-20.846 1.757a14.77 14.77 0 00-1.503 2.162l6.941 4.02c.197-.342.422-.674.687-.992z" fill="#5DCD57"/><path d="M31.206 51.581l6.94-4.02a6.795 6.795 0 010-6.784l-6.94-4.02c-2.669 4.627-2.607 10.294 0 14.825z" fill="#C9CACA"/><path d="M24.327 32.833C18.087 27.546 8.751 28.33 3.48 34.59a14.79 14.79 0 00-1.502 2.162c-2.669 4.627-2.607 10.294 0 14.825A14.726 14.726 0 005.232 55.5c6.24 5.286 15.577 4.502 20.847-1.758 5.27-6.259 4.488-15.623-1.752-20.91zm-4.373 15.72a6.757 6.757 0 01-9.542.804 6.685 6.685 0 01-1.488-1.796 6.795 6.795 0 010-6.784 6.98 6.98 0 01.686-.992 6.757 6.757 0 019.543-.804 6.806 6.806 0 01.801 9.572z" fill="#5DCD57"/></g><defs><clipPath id="clip0_1_563"><path fill="#fff" transform="translate(0 .006)" d="M0 0h180v59H0z"/></clipPath></defs></svg>