<svg width="181" height="59" fill="none" xmlns="http://www.w3.org/2000/svg"><path d="M68.42 14.155c0-7.626 6.264-12.571 13.244-12.571 4.62 0 8.164 2.268 10.471 5.667l-5.905 3.712c-.925-1.444-2.873-2.32-4.518-2.32-3.492 0-5.545 2.522-5.545 5.512 0 2.99 2.053 5.667 5.545 5.667 1.64 0 3.593-.876 4.518-2.32l5.905 3.712c-2.307 3.399-5.852 5.667-10.471 5.667-6.98 0-13.244-5.1-13.244-12.726zm28.028.102c0-7.627 6.159-12.678 12.989-12.678 6.831 0 13.038 5.051 13.038 12.678 0 7.626-6.212 12.624-13.038 12.624-6.825 0-12.99-5.05-12.99-12.624zm18.275 0c0-3.298-2.36-5.62-5.286-5.62-2.926 0-5.286 2.322-5.286 5.62s2.36 5.565 5.286 5.565c2.926 0 5.286-2.267 5.286-5.565zm12.064-.102c0-7.626 6.265-12.571 13.244-12.571 4.62 0 8.164 2.268 10.472 5.667l-5.905 3.712c-.926-1.444-2.873-2.32-4.519-2.32-3.492 0-5.545 2.522-5.545 5.512 0 2.99 2.053 5.667 5.545 5.667 1.641 0 3.593-.876 4.519-2.32l5.905 3.712c-2.308 3.399-5.852 5.667-10.472 5.667-6.979 0-13.244-5.1-13.244-12.726zm28.033.102c0-7.627 6.159-12.678 12.99-12.678 6.83 0 13.037 5.051 13.037 12.678 0 7.626-6.212 12.624-13.037 12.624-6.826 0-12.99-5.05-12.99-12.624zm18.276 0c0-3.298-2.36-5.62-5.286-5.62-2.927 0-5.287 2.322-5.287 5.62s2.36 5.565 5.287 5.565c2.926 0 5.286-2.267 5.286-5.565zm-66.853 30.424v12.725h-7.771v-11.45c0-3.2-1.31-4.554-3.353-4.554-2.25 0-3.885 1.517-3.885 4.964v11.04h-7.771v-11.45c0-3.2-1.267-4.554-3.353-4.554-2.288 0-3.924 1.517-3.924 4.964v11.04h-7.77V35.162h7.4v2.34c1.675-1.805 4.006-2.71 6.625-2.71 3.027 0 5.603 1.107 7.157 3.49 1.755-2.215 4.5-3.49 7.684-3.49 5.152 0 8.956 2.994 8.956 9.889h.005zm28.833-9.519v22.244h-7.401v-2.215c-1.473 1.767-3.641 2.586-6.543 2.586-6.01 0-10.879-4.434-10.879-11.531s4.864-11.45 10.879-11.45c2.576 0 4.662.737 6.173 2.297v-1.93h7.771zm-7.646 11.084c0-3.366-2.043-5.253-4.662-5.253-2.619 0-4.663 1.887-4.663 5.253 0 3.365 2.044 5.334 4.663 5.334s4.662-1.93 4.662-5.334zm26.905 10.255c-1.348.862-3.353 1.271-5.396 1.271-5.684 0-8.956-2.792-8.956-8.493V30.112h7.771v5.05h5.032v6.65h-5.032v7.385c0 1.642.902 2.547 2.288 2.547.859 0 1.717-.245 2.37-.698l1.923 5.46v-.005zm20.828-6.606l4.049 4.266c-2.087 2.379-5.195 3.611-9.407 3.611-7.891 0-13.004-4.882-13.004-11.531 0-6.65 5.233-11.45 12.265-11.45 6.38 0 11.733 4.064 11.776 11.33l-15.824 3.038c.858 1.805 2.576 2.667 5.027 2.667 2.168 0 3.597-.616 5.113-1.93h.005zm-10.754-4.718l8.994-1.767c-.533-1.849-2.125-3.077-4.294-3.077-2.657 0-4.456 1.685-4.7 4.844zM20.922 19.22a6.749 6.749 0 01-9.536.805 6.81 6.81 0 01-.801-9.572 6.75 6.75 0 019.536-.804 6.684 6.684 0 011.487 1.796l6.936-4.02A14.722 14.722 0 0025.292 3.5C19.061-1.786 9.732-.996 4.464 5.263-.807 11.522-.02 20.887 6.215 26.173c6.236 5.287 15.566 4.502 20.833-1.757a14.77 14.77 0 001.501-2.162l-6.936-4.02a7.054 7.054 0 01-.686.992l-.005-.005z" fill="#fff"/><path d="M28.549 7.424l-6.936 4.02a6.799 6.799 0 010 6.785l6.936 4.02c2.667-4.627 2.605-10.294 0-14.825z" fill="#C9CACA"/><path d="M57.752 7.424A14.724 14.724 0 0054.5 3.5C48.264-1.786 38.934-1 33.667 5.258c-5.267 6.259-4.485 15.624 1.751 20.91 6.236 5.287 15.566 4.502 20.833-1.757a14.77 14.77 0 001.5-2.162c2.668-4.627 2.605-10.294 0-14.825zM50.13 19.221a6.75 6.75 0 01-9.536.804 6.81 6.81 0 01-.801-9.572 6.75 6.75 0 019.536-.804 6.683 6.683 0 011.487 1.796 6.799 6.799 0 010 6.784 7.053 7.053 0 01-.686.992z" fill="#fff"/><path d="M39.778 39.78a6.75 6.75 0 019.536-.805 6.81 6.81 0 01.801 9.572 6.749 6.749 0 01-9.536.804 6.68 6.68 0 01-1.487-1.796l-6.936 4.02a14.725 14.725 0 003.252 3.925c6.236 5.286 15.566 4.501 20.833-1.758 5.267-6.259 4.485-15.624-1.751-20.91-6.236-5.287-15.566-4.502-20.833 1.757a14.77 14.77 0 00-1.5 2.162l6.935 4.02c.197-.342.422-.674.686-.992z" fill="#fff"/><path d="M32.156 51.576l6.936-4.02a6.799 6.799 0 010-6.785l-6.936-4.02c-2.667 4.627-2.604 10.294 0 14.825z" fill="#C9CACA"/><path d="M25.282 32.827c-6.236-5.286-15.565-4.502-20.832 1.758-.576.683-1.07 1.41-1.502 2.161-2.667 4.627-2.604 10.294 0 14.825a14.724 14.724 0 003.253 3.924c6.235 5.287 15.565 4.502 20.832-1.757 5.267-6.26 4.485-15.624-1.75-20.91zm-4.37 15.72a6.75 6.75 0 01-9.536.804 6.683 6.683 0 01-1.487-1.796 6.799 6.799 0 010-6.784 7.05 7.05 0 01.686-.991 6.75 6.75 0 019.536-.805 6.81 6.81 0 01.801 9.572z" fill="#fff"/></svg>