<svg width="22" height="18" fill="none" xmlns="http://www.w3.org/2000/svg"><path d="M6.903 18c8.307 0 12.85-6.927 12.85-12.93 0-.198 0-.396-.01-.584A9.286 9.286 0 0022 2.13a9.122 9.122 0 01-2.594.716A4.536 4.536 0 0021.39.33a9.11 9.11 0 01-2.866 1.102A4.481 4.481 0 0015.23 0c-2.492 0-4.515 2.036-4.515 4.542 0 .359.038.707.122 1.037-3.756-.188-7.08-1.998-9.31-4.75A4.58 4.58 0 00.919 3.11c0 1.574.796 2.969 2.013 3.779A4.415 4.415 0 01.89 6.324v.056a4.542 4.542 0 003.624 4.458 4.474 4.474 0 01-2.041.075 4.513 4.513 0 004.214 3.157A9.043 9.043 0 010 15.946 12.526 12.526 0 006.903 18z" fill="#5DCD57"/></svg>