<svg width="180" height="60" viewBox="0 0 180 60" fill="none" xmlns="http://www.w3.org/2000/svg">
<g clip-path="url(#clip0_1_563)">
<path d="M67.4946 14.1612C67.4946 6.5346 73.7636 1.58984 80.7478 1.58984C85.3703 1.58984 88.9176 3.85759 91.2265 7.25681L85.3175 10.969C84.3911 9.52456 82.4422 8.64827 80.7958 8.64827C77.3013 8.64827 75.2468 11.1712 75.2468 14.1612C75.2468 17.1511 77.3013 19.8281 80.7958 19.8281C82.4374 19.8281 84.3911 18.9518 85.3175 17.5074L91.2265 21.2196C88.9176 24.6188 85.3703 26.8866 80.7478 26.8866C73.7636 26.8866 67.4946 21.7877 67.4946 14.1612Z" fill="#5DCD57"/>
<path d="M95.542 14.2625C95.542 6.63588 101.705 1.58521 108.541 1.58521C115.376 1.58521 121.587 6.63588 121.587 14.2625C121.587 21.889 115.371 26.8867 108.541 26.8867C101.71 26.8867 95.542 21.8361 95.542 14.2625ZM113.83 14.2625C113.83 10.9643 111.469 8.64364 108.541 8.64364C105.613 8.64364 103.251 10.9643 103.251 14.2625C103.251 17.5606 105.613 19.8283 108.541 19.8283C111.469 19.8283 113.83 17.5606 113.83 14.2625Z" fill="#5DCD57"/>
<path d="M125.903 14.1612C125.903 6.5346 132.172 1.58984 139.156 1.58984C143.779 1.58984 147.326 3.85759 149.635 7.25681L143.726 10.969C142.799 9.52456 140.85 8.64827 139.204 8.64827C135.709 8.64827 133.655 11.1712 133.655 14.1612C133.655 17.1511 135.709 19.8281 139.204 19.8281C140.846 19.8281 142.799 18.9518 143.726 17.5074L149.635 21.2196C147.326 24.6188 143.779 26.8866 139.156 26.8866C132.172 26.8866 125.903 21.7877 125.903 14.1612Z" fill="#5DCD57"/>
<path d="M153.955 14.2625C153.955 6.63588 160.118 1.58521 166.953 1.58521C173.789 1.58521 180 6.63588 180 14.2625C180 21.889 173.784 26.8867 166.953 26.8867C160.123 26.8867 153.955 21.8361 153.955 14.2625ZM172.243 14.2625C172.243 10.9643 169.881 8.64364 166.953 8.64364C164.025 8.64364 161.664 10.9643 161.664 14.2625C161.664 17.5606 164.025 19.8283 166.953 19.8283C169.881 19.8283 172.243 17.5606 172.243 14.2625Z" fill="#5DCD57"/>
<path d="M105.344 44.6869V57.4123H97.5678V45.9628C97.5678 42.761 96.2574 41.408 94.2125 41.408C91.9613 41.408 90.3244 42.9247 90.3244 46.372V57.4123H82.5482V45.9628C82.5482 42.761 81.281 41.408 79.1929 41.408C76.9033 41.408 75.2664 42.9247 75.2664 46.372V57.4123H67.4902V35.1681H74.8968V37.5081C76.5721 35.7025 78.9049 34.7974 81.5258 34.7974C84.5547 34.7974 87.1324 35.9048 88.6876 38.2881C90.4444 36.0733 93.1901 34.7974 96.3774 34.7974C101.533 34.7974 105.339 37.7921 105.339 44.6869H105.344Z" fill="#5DCD57"/>
<path d="M134.198 35.1679V57.4121H126.791V55.1973C125.317 56.9643 123.148 57.7828 120.244 57.7828C114.229 57.7828 109.357 53.3484 109.357 46.2515C109.357 39.1545 114.224 34.802 120.244 34.802C122.821 34.802 124.909 35.5387 126.421 37.0986V35.1679H134.198ZM126.546 46.2515C126.546 42.886 124.501 40.9986 121.88 40.9986C119.26 40.9986 117.215 42.886 117.215 46.2515C117.215 49.617 119.26 51.5862 121.88 51.5862C124.501 51.5862 126.546 49.6555 126.546 46.2515Z" fill="#5DCD57"/>
<path d="M153.47 56.5071C152.121 57.3689 150.115 57.7782 148.07 57.7782C142.382 57.7782 139.108 54.9856 139.108 49.285V30.1174H146.884V35.1681H151.919V41.8173H146.884V49.2031C146.884 50.8449 147.787 51.7501 149.174 51.7501C150.033 51.7501 150.892 51.5046 151.545 51.052L153.47 56.5119V56.5071Z" fill="#5DCD57"/>
<path d="M174.312 49.9012L178.363 54.1671C176.275 56.5456 173.165 57.7782 168.95 57.7782C161.054 57.7782 155.937 52.896 155.937 46.2468C155.937 39.5977 161.174 34.7974 168.211 34.7974C174.595 34.7974 179.952 38.861 179.995 46.1265L164.16 49.1646C165.019 50.9701 166.737 51.832 169.19 51.832C171.36 51.832 172.79 51.2157 174.307 49.9012H174.312ZM163.55 45.1828L172.55 43.4158C172.017 41.5669 170.424 40.3391 168.254 40.3391C165.595 40.3391 163.795 42.0243 163.55 45.1828Z" fill="#5DCD57"/>
<path d="M19.9639 19.2266C17.5495 22.0914 13.2773 22.4525 10.4213 20.0307C7.56519 17.6089 7.20518 13.3237 9.61965 10.459C12.0341 7.59419 16.3062 7.23309 19.1623 9.65491C19.7767 10.1749 20.2711 10.7864 20.6503 11.4508L27.5913 7.43049C26.7609 5.98607 25.6857 4.64756 24.3368 3.50647C18.1015 -1.78013 8.76522 -0.990513 3.49468 5.26867C-1.78066 11.5278 -0.993436 20.8925 5.24673 26.1791C11.4869 31.4657 20.8231 30.6809 26.0937 24.4218C26.6697 23.7381 27.1641 23.011 27.5961 22.2599L20.6551 18.2396C20.4583 18.5815 20.2327 18.9137 19.9687 19.2315L19.9639 19.2266Z" fill="#5DCD57"/>
<path d="M27.5963 7.43018L20.6553 11.4505C21.8505 13.5257 21.8793 16.1208 20.6553 18.2345L27.5963 22.2548C30.2651 17.6278 30.2027 11.9609 27.5963 7.43018Z" fill="#C9CACA"/>
<path d="M56.8193 7.43031C55.9888 5.98588 54.9136 4.64738 53.5648 3.50628C47.3246 -1.78032 37.9883 -0.995513 32.7178 5.26367C27.4473 11.5228 28.2297 20.8875 34.4699 26.1741C40.71 31.4607 50.0463 30.6759 55.3168 24.4168C55.8928 23.7331 56.3872 23.006 56.8193 22.2549C59.4881 17.628 59.4257 11.961 56.8193 7.43031ZM49.1918 19.2265C46.7774 22.0912 42.5053 22.4523 39.6492 20.0305C36.7931 17.6087 36.4331 13.3236 38.8476 10.4588C41.262 7.59401 45.5341 7.2329 48.3902 9.65472C49.0046 10.1747 49.4991 10.7862 49.8783 11.4506C51.0735 13.5258 51.1023 16.1209 49.8783 18.2346C49.6815 18.5765 49.4559 18.9087 49.1918 19.2265Z" fill="#5DCD57"/>
<path d="M38.8335 39.7853C41.2479 36.9205 45.52 36.5594 48.3761 38.9812C51.2322 41.403 51.5922 45.6882 49.1777 48.5529C46.7633 51.4177 42.4912 51.7788 39.6351 49.357C39.0207 48.837 38.5262 48.2255 38.147 47.5611L31.2061 51.5814C32.0365 53.0258 33.1117 54.3643 34.4605 55.5054C40.7007 60.792 50.037 60.0072 55.3075 53.7481C60.578 47.4889 59.7956 38.1242 53.5554 32.8376C47.3153 27.551 37.979 28.3358 32.7085 34.595C32.1325 35.2787 31.6381 36.0057 31.2061 36.7568L38.147 40.7771C38.3438 40.4353 38.5695 40.103 38.8335 39.7853Z" fill="#5DCD57"/>
<path d="M31.2059 51.5815L38.1468 47.5611C36.9516 45.486 36.9228 42.8908 38.1468 40.7772L31.2059 36.7568C28.537 41.3838 28.5994 47.0508 31.2059 51.5815Z" fill="#C9CACA"/>
<path d="M24.3272 32.8329C18.0871 27.5463 8.75081 28.3311 3.48027 34.5903C2.90426 35.274 2.40985 36.0011 1.97783 36.7522C-0.691037 41.3791 -0.628636 47.0461 1.97783 51.5768C2.80826 53.0212 3.88348 54.3597 5.23232 55.5008C11.4725 60.7874 20.8087 60.0026 26.0793 53.7434C31.3498 47.4842 30.5674 38.1195 24.3272 32.8329ZM19.9543 48.5531C17.5398 51.4179 13.2677 51.779 10.4117 49.3572C9.79724 48.8372 9.30283 48.2257 8.92362 47.5613C7.72839 45.4861 7.69959 42.891 8.92362 40.7773C9.12042 40.4354 9.34603 40.1032 9.61004 39.7854C12.0245 36.9207 16.2966 36.5596 19.1527 38.9814C22.0088 41.4032 22.3688 45.6883 19.9543 48.5531Z" fill="#5DCD57"/>
</g>
<defs>
<clipPath id="clip0_1_563">
<rect width="180" height="59" fill="white" transform="translate(0 0.00585938)"/>
</clipPath>
</defs>
</svg>
