<svg width="181" height="59" viewBox="0 0 181 59" fill="none" xmlns="http://www.w3.org/2000/svg">
<path d="M68.4199 14.1553C68.4199 6.52874 74.6845 1.58398 81.6639 1.58398C86.2832 1.58398 89.828 3.85173 92.1353 7.25095L86.2304 10.9631C85.3046 9.5187 83.3572 8.64241 81.7118 8.64241C78.2198 8.64241 76.1667 11.1653 76.1667 14.1553C76.1667 17.1453 78.2198 19.8223 81.7118 19.8223C83.3524 19.8223 85.3046 18.946 86.2304 17.5016L92.1353 21.2137C89.828 24.613 86.2832 26.8807 81.6639 26.8807C74.6845 26.8807 68.4199 21.7819 68.4199 14.1553Z" fill="white"/>
<path d="M96.4476 14.2566C96.4476 6.63002 102.607 1.57935 109.437 1.57935C116.268 1.57935 122.475 6.63002 122.475 14.2566C122.475 21.8832 116.263 26.8809 109.437 26.8809C102.612 26.8809 96.4476 21.8302 96.4476 14.2566ZM114.723 14.2566C114.723 10.9585 112.363 8.63778 109.437 8.63778C106.511 8.63778 104.151 10.9585 104.151 14.2566C104.151 17.5547 106.511 19.8224 109.437 19.8224C112.363 19.8224 114.723 17.5547 114.723 14.2566Z" fill="white"/>
<path d="M126.787 14.1553C126.787 6.52874 133.052 1.58398 140.031 1.58398C144.651 1.58398 148.195 3.85173 150.503 7.25095L144.598 10.9631C143.672 9.5187 141.725 8.64241 140.079 8.64241C136.587 8.64241 134.534 11.1653 134.534 14.1553C134.534 17.1453 136.587 19.8223 140.079 19.8223C141.72 19.8223 143.672 18.946 144.598 17.5016L150.503 21.2137C148.195 24.613 144.651 26.8807 140.031 26.8807C133.052 26.8807 126.787 21.7819 126.787 14.1553Z" fill="white"/>
<path d="M154.82 14.2566C154.82 6.63002 160.979 1.57935 167.81 1.57935C174.64 1.57935 180.847 6.63002 180.847 14.2566C180.847 21.8832 174.635 26.8809 167.81 26.8809C160.984 26.8809 154.82 21.8302 154.82 14.2566ZM173.096 14.2566C173.096 10.9585 170.736 8.63778 167.81 8.63778C164.883 8.63778 162.523 10.9585 162.523 14.2566C162.523 17.5547 164.883 19.8224 167.81 19.8224C170.736 19.8224 173.096 17.5547 173.096 14.2566Z" fill="white"/>
<path d="M106.243 44.681V57.4064H98.4719V45.9569C98.4719 42.7551 97.1624 41.4022 95.1189 41.4022C92.8692 41.4022 91.2335 42.9188 91.2335 46.3662V57.4064H83.4627V45.9569C83.4627 42.7551 82.1964 41.4022 80.1097 41.4022C77.8217 41.4022 76.186 42.9188 76.186 46.3662V57.4064H68.4152V35.1622H75.8166V37.5022C77.4907 35.6967 79.8219 34.7915 82.441 34.7915C85.4678 34.7915 88.0436 35.8989 89.5978 38.2822C91.3534 36.0674 94.0972 34.7915 97.2823 34.7915C102.434 34.7915 106.238 37.7863 106.238 44.681H106.243Z" fill="white"/>
<path d="M135.076 35.1621V57.4062H127.675V55.1914C126.202 56.9585 124.034 57.777 121.132 57.777C115.122 57.777 110.253 53.3426 110.253 46.2456C110.253 39.1487 115.117 34.7961 121.132 34.7961C123.708 34.7961 125.794 35.5328 127.305 37.0928V35.1621H135.076ZM127.43 46.2456C127.43 42.8801 125.387 40.9927 122.768 40.9927C120.149 40.9927 118.105 42.8801 118.105 46.2456C118.105 49.6111 120.149 51.5804 122.768 51.5804C125.387 51.5804 127.43 49.6497 127.43 46.2456Z" fill="white"/>
<path d="M154.335 56.5012C152.987 57.3631 150.982 57.7723 148.939 57.7723C143.255 57.7723 139.983 54.9798 139.983 49.2791V30.1116H147.754V35.1622H152.786V41.8114H147.754V49.1973C147.754 50.8391 148.656 51.7443 150.042 51.7443C150.901 51.7443 151.759 51.4987 152.412 51.0461L154.335 56.5061V56.5012Z" fill="white"/>
<path d="M175.163 49.8954L179.212 54.1613C177.125 56.5397 174.017 57.7723 169.805 57.7723C161.914 57.7723 156.801 52.8902 156.801 46.241C156.801 39.5918 162.034 34.7915 169.066 34.7915C175.446 34.7915 180.799 38.8552 180.842 46.1206L165.018 49.1587C165.876 50.9643 167.594 51.8261 170.045 51.8261C172.213 51.8261 173.642 51.2098 175.158 49.8954H175.163ZM164.409 45.1769L173.403 43.4099C172.87 41.561 171.278 40.3333 169.109 40.3333C166.452 40.3333 164.653 42.0184 164.409 45.1769Z" fill="white"/>
<path d="M20.9221 19.2208C18.5093 22.0856 14.2402 22.4467 11.3861 20.0248C8.53199 17.603 8.17223 13.3179 10.585 10.4531C12.9978 7.58833 17.267 7.22723 20.121 9.64905C20.735 10.169 21.2291 10.7805 21.6081 11.445L28.5442 7.42463C27.7144 5.98021 26.6399 4.64171 25.292 3.50061C19.061 -1.78599 9.73119 -0.996373 4.4643 5.26281C-0.807376 11.522 -0.0207007 20.8867 6.21514 26.1733C12.451 31.4599 21.7807 30.6751 27.0476 24.4159C27.6232 23.7322 28.1173 23.0052 28.549 22.2541L21.6129 18.2338C21.4162 18.5756 21.1907 18.9078 20.9269 19.2256L20.9221 19.2208Z" fill="white"/>
<path d="M28.549 7.42432L21.6128 11.4446C22.8072 13.5198 22.836 16.1149 21.6128 18.2286L28.549 22.2489C31.216 17.622 31.1536 11.955 28.549 7.42432Z" fill="#C9CACA"/>
<path d="M57.7519 7.42445C56.922 5.98002 55.8476 4.64152 54.4997 3.50042C48.2638 -1.78618 38.934 -1.00137 33.6672 5.25781C28.4003 11.517 29.1822 20.8817 35.418 26.1683C41.6538 31.4549 50.9836 30.6701 56.2505 24.4109C56.8261 23.7272 57.3202 23.0002 57.7519 22.2491C60.4189 17.6221 60.3565 11.9551 57.7519 7.42445ZM50.1298 19.2206C47.717 22.0854 43.4478 22.4465 40.5937 20.0247C37.7396 17.6028 37.3799 13.3177 39.7927 10.4529C42.2055 7.58815 46.4746 7.22704 49.3287 9.64886C49.9427 10.1689 50.4368 10.7803 50.8157 11.4448C52.0101 13.5199 52.0389 16.1151 50.8157 18.2288C50.619 18.5706 50.3936 18.9028 50.1298 19.2206Z" fill="white"/>
<path d="M39.7782 39.7794C42.191 36.9146 46.4602 36.5535 49.3143 38.9753C52.1684 41.3972 52.5281 45.6823 50.1153 48.5471C47.7025 51.4119 43.4334 51.773 40.5793 49.3511C39.9653 48.8312 39.4712 48.2197 39.0923 47.5552L32.1561 51.5756C32.986 53.02 34.0605 54.3585 35.4084 55.4996C41.6442 60.7862 50.974 60.0014 56.2408 53.7422C61.5077 47.483 60.7259 38.1183 54.49 32.8317C48.2542 27.5451 38.9244 28.3299 33.6575 34.5891C33.0819 35.2728 32.5878 35.9998 32.1561 36.7509L39.0923 40.7713C39.289 40.4294 39.5144 40.0972 39.7782 39.7794Z" fill="white"/>
<path d="M32.1561 51.5756L39.0923 47.5553C37.8979 45.4801 37.8691 42.885 39.0923 40.7713L32.1561 36.751C29.4891 41.378 29.5515 47.0449 32.1561 51.5756Z" fill="#C9CACA"/>
<path d="M25.2823 32.8271C19.0464 27.5405 9.71667 28.3253 4.44978 34.5845C3.87417 35.2682 3.3801 35.9952 2.94838 36.7463C0.281366 41.3733 0.343724 47.0402 2.94838 51.5709C3.77823 53.0153 4.85271 54.3538 6.20061 55.4949C12.4364 60.7815 21.7662 59.9967 27.0331 53.7376C32.3 47.4784 31.5181 38.1137 25.2823 32.8271ZM20.9124 48.5473C18.4996 51.412 14.2305 51.7731 11.3764 49.3513C10.7624 48.8313 10.2683 48.2199 9.88935 47.5554C8.69495 45.4803 8.66617 42.8851 9.88935 40.7714C10.086 40.4296 10.3115 40.0974 10.5753 39.7796C12.9881 36.9148 17.2572 36.5537 20.1113 38.9755C22.9654 41.3973 23.3252 45.6825 20.9124 48.5473Z" fill="white"/>
</svg>
