<svg width="22" height="18" viewBox="0 0 22 18" fill="none" xmlns="http://www.w3.org/2000/svg">
<path d="M6.90251 18C15.2099 18 19.7522 11.0733 19.7522 5.07016C19.7522 4.87225 19.7522 4.67435 19.7429 4.48586C20.6232 3.84503 21.3912 3.04398 22 2.12984C21.1946 2.48796 20.3235 2.73298 19.4057 2.84607C20.3423 2.28063 21.0541 1.39476 21.3912 0.329843C20.5202 0.848168 19.5556 1.22513 18.5253 1.43246C17.7011 0.546597 16.5304 0 15.2286 0C12.7373 0 10.7143 2.0356 10.7143 4.54241C10.7143 4.90052 10.7518 5.24921 10.8361 5.57906C7.08046 5.39058 3.75564 3.58115 1.52661 0.82932C1.14261 1.49843 0.917838 2.28063 0.917838 3.10995C0.917838 4.68377 1.71392 6.07853 2.93146 6.88901C2.19157 6.87016 1.49851 6.66283 0.88974 6.32356C0.88974 6.34241 0.88974 6.36126 0.88974 6.3801C0.88974 8.58534 2.44444 10.4136 4.51426 10.8377C4.13963 10.9414 3.73691 10.9979 3.32482 10.9979C3.03448 10.9979 2.75351 10.9696 2.47254 10.9131C3.04385 12.7225 4.71094 14.0325 6.6871 14.0702C5.14176 15.2859 3.1937 16.0115 1.07705 16.0115C0.711792 16.0115 0.355896 15.9927 0 15.9456C1.97616 17.2461 4.35504 18 6.90251 18Z" fill="#5DCD57"/>
</svg>
